<?xml version="1.0" encoding="UTF-8" standalone="no"?>
<!DOCTYPE svg PUBLIC "-//W3C//DTD SVG 1.1//EN" "http://www.w3.org/Graphics/SVG/1.1/DTD/svg11.dtd">
<svg xmlns="http://www.w3.org/2000/svg" version="1.1" viewBox="0.00 0.00 796.00 796.00">
<path fill="#000000" d="
  M 152.95 538.00
  C 152.70 445.23 152.64 352.44 152.83 259.67
  A 3.68 3.68 0.0 0 1 154.65 256.51
  L 393.73 117.26
  A 3.84 3.83 -45.1 0 1 397.59 117.25
  Q 512.19 183.16 626.58 248.90
  Q 633.08 252.63 639.48 256.54
  Q 641.71 257.90 641.70 260.62
  Q 641.40 399.82 641.51 538.68
  A 2.58 2.57 -14.8 0 1 640.20 540.92
  Q 523.28 606.83 406.26 672.47
  Q 404.32 673.56 397.21 677.74
  C 394.52 679.33 393.03 677.04 391.16 675.98
  Q 273.02 608.83 154.98 541.50
  Q 152.96 540.35 152.95 538.00
  Z
  M 580.05 501.92
  L 580.02 295.74
  A 2.23 2.21 -75.0 0 0 578.92 293.82
  L 396.16 187.13
  Q 395.76 186.90 395.01 187.34
  L 215.41 293.80
  A 1.74 1.73 -18.4 0 0 214.56 295.48
  C 214.96 299.17 214.51 303.80 214.51 306.55
  Q 214.35 403.77 214.42 501.00
  C 214.42 505.10 216.69 504.71 219.32 506.22
  Q 304.65 555.39 389.94 604.64
  C 392.02 605.84 394.73 608.59 397.26 607.36
  C 398.37 606.82 399.75 605.52 401.08 604.77
  Q 490.07 554.24 578.80 504.07
  A 2.47 2.47 0.0 0 0 580.05 501.92
  Z"
/>
<path fill="#000000" d="
  M 284.07 325.23
  Q 337.17 294.22 390.54 263.67
  C 391.93 262.88 393.01 261.84 394.27 260.90
  A 1.62 1.62 0.0 0 1 396.03 260.78
  L 513.94 327.33
  A 2.85 2.84 14.9 0 1 515.38 329.80
  L 515.33 465.41
  A 2.10 2.09 -15.4 0 1 514.30 467.21
  L 396.90 536.44
  A 2.61 2.26 43.3 0 1 394.39 536.34
  L 280.49 467.41
  Q 278.80 466.39 278.80 464.42
  L 278.85 329.58
  A 2.49 2.48 -13.9 0 1 280.18 327.38
  Q 282.06 326.40 284.07 325.23
  Z"
/>
</svg>
